<?xml version="1.0" standalone="no"?>
<!DOCTYPE svg PUBLIC "-//W3C//DTD SVG 20010904//EN"
 "http://www.w3.org/TR/2001/REC-SVG-20010904/DTD/svg10.dtd">
<svg version="1.0" xmlns="http://www.w3.org/2000/svg"
 width="640.000000pt" height="426.000000pt" viewBox="0 0 640.000000 426.000000"
 preserveAspectRatio="xMidYMid meet">
<metadata>
Created by potrace 1.16, written by Peter Selinger 2001-2019
</metadata>
<g transform="translate(0.000000,426.000000) scale(0.100000,-0.100000)"
fill="#000000" stroke="none">
<path d="M4310 2304 c-85 -39 -185 -74 -238 -83 -59 -11 -64 -21 -9 -21 26 0
47 -4 47 -10 0 -5 8 -6 17 -3 12 5 15 2 10 -9 -4 -11 1 -18 15 -21 27 -8 17
-32 -13 -32 -17 0 -25 6 -27 23 -4 25 -17 29 -26 7 -3 -8 -12 -12 -21 -9 -8 3
-22 3 -31 0 -14 -5 -14 -9 -3 -22 9 -11 22 -14 43 -10 35 6 62 -6 52 -23 -15
-24 11 -9 43 24 31 34 61 46 61 25 0 -5 6 -10 14 -10 8 0 22 -10 30 -21 l15
-22 45 27 c35 21 46 23 46 12 0 -8 -4 -18 -10 -21 -21 -13 -10 -43 20 -54 36
-12 38 -23 8 -44 -31 -21 -11 -41 41 -42 21 0 45 -6 53 -13 8 -6 25 -8 38 -5
17 5 21 3 15 -7 -5 -8 -1 -18 10 -27 17 -12 17 -13 2 -13 -9 0 -17 -5 -17 -10
0 -6 -10 -15 -22 -20 -23 -9 -23 -9 -1 -9 16 -1 20 -6 16 -21 -3 -12 0 -20 7
-20 7 0 10 -7 6 -15 -3 -8 4 -21 17 -30 20 -14 17 -20 -8 -15 -5 1 -6 -2 -2
-6 4 -5 16 -9 25 -9 65 -5 65 -5 53 -19 -10 -11 -8 -15 6 -19 14 -4 13 -5 -4
-6 -43 -2 -23 -20 25 -23 45 -3 47 -4 45 -31 -2 -24 3 -29 29 -34 29 -6 30 -7
11 -14 -26 -10 -21 -43 9 -56 15 -6 22 -20 23 -46 2 -24 15 -51 36 -79 19 -23
32 -42 30 -43 -3 0 9 -20 25 -44 65 -98 101 -166 96 -184 -3 -11 1 -23 9 -27
7 -5 10 -13 5 -17 -5 -4 -11 -2 -13 5 -8 20 -32 14 -26 -7 5 -20 -12 -37 -22
-22 -3 6 -12 8 -20 4 -10 -3 -13 -1 -10 8 5 14 -43 74 -52 65 -3 -2 4 -15 16
-27 12 -13 21 -31 21 -40 0 -10 14 -38 30 -63 17 -24 29 -48 28 -53 -2 -9 23
-58 60 -118 27 -42 27 -46 37 -229 3 -66 10 -152 15 -192 5 -39 12 -139 15
-220 3 -82 8 -164 11 -181 l5 -33 212 0 c197 0 213 1 224 19 8 13 19 17 39 13
22 -4 26 -2 21 12 -4 11 -1 16 11 18 9 0 23 2 30 2 7 1 21 16 32 34 11 17 27
32 36 32 9 0 28 10 42 23 55 48 176 174 198 207 14 19 38 53 54 75 56 76 92
182 135 395 3 14 17 60 31 104 28 84 26 126 -5 126 -23 0 -49 29 -60 68 -7 25
-5 34 10 48 10 9 19 26 19 37 0 11 14 35 31 55 36 41 33 45 -58 63 -50 10 -60
15 -52 26 9 10 8 13 -2 13 -8 0 -32 12 -53 26 -51 35 -131 64 -176 64 -34 0
-243 62 -264 79 -6 5 -28 11 -49 15 -20 4 -66 22 -102 41 -75 40 -141 58 -165
45 -13 -7 -23 -3 -39 14 -11 12 -21 25 -21 29 0 4 -22 44 -50 88 -27 44 -50
84 -50 87 -1 15 -118 131 -157 155 -23 15 -47 36 -53 47 -6 12 -36 38 -67 58
-31 20 -70 47 -87 59 -17 12 -40 22 -51 22 -27 1 -118 39 -185 78 -72 41 -98
46 -140 27z"/>
<path d="M3465 2256 c-41 -9 -51 -15 -53 -34 -3 -18 -9 -23 -22 -19 -10 3 -28
-1 -39 -9 -12 -9 -21 -10 -23 -3 -2 7 -13 5 -31 -4 -15 -8 -39 -13 -53 -11
-19 2 -27 -4 -35 -23 -5 -14 -12 -23 -16 -19 -3 3 -13 0 -21 -7 -12 -9 -16 -9
-19 1 -3 6 -11 12 -19 12 -7 0 -11 6 -8 14 4 10 -2 12 -20 9 -17 -4 -26 -1
-26 7 0 7 -7 10 -15 6 -8 -3 -15 0 -15 7 0 9 -2 9 -8 -1 -13 -20 -42 -3 -42
24 0 23 -10 31 -23 17 -4 -3 -2 -12 4 -19 7 -8 7 -14 -1 -19 -7 -4 -14 2 -17
14 -3 12 -12 21 -20 21 -8 0 -24 10 -35 23 -10 12 -17 15 -14 7 3 -8 9 -23 12
-32 4 -10 10 -18 15 -18 5 0 9 -8 9 -17 -1 -16 -2 -16 -16 2 -14 18 -16 18
-25 3 -6 -10 -16 -14 -31 -10 -18 4 -20 2 -14 -14 12 -29 12 -46 0 -51 -6 -2
-15 6 -19 19 -7 22 -7 22 -12 3 -10 -47 -14 -51 -24 -32 -6 9 -17 17 -26 17
-12 0 -14 -7 -9 -30 3 -17 1 -30 -4 -30 -6 0 -8 -12 -4 -27 9 -39 15 -47 24
-33 6 10 16 7 40 -10 31 -22 32 -22 21 -2 -14 26 -14 52 -1 52 6 0 15 -20 22
-45 10 -37 14 -42 27 -32 12 10 14 9 8 -5 -3 -10 -2 -20 3 -23 6 -4 10 -16 10
-28 0 -16 3 -18 9 -9 9 15 -7 71 -28 96 -10 12 -11 20 -3 28 8 8 16 1 31 -23
23 -37 27 -54 11 -44 -14 9 -13 3 10 -49 23 -56 31 -59 19 -9 -8 39 -4 59 7
27 3 -10 10 -29 15 -42 5 -13 9 -33 9 -45 0 -16 3 -18 9 -8 7 11 9 11 13 0 3
-8 -1 -19 -8 -26 -17 -17 -24 -16 -24 2 0 8 -7 15 -15 15 -8 0 -15 -4 -15 -10
0 -5 4 -10 9 -10 5 0 13 -17 19 -37 9 -34 10 -35 11 -10 1 39 16 33 18 -8 1
-20 -2 -33 -7 -30 -4 3 -10 -5 -14 -18 -9 -35 -7 -77 4 -77 6 0 10 15 8 33 -2
17 1 33 7 35 5 1 10 -12 11 -29 1 -17 7 -36 13 -42 6 -6 11 -19 11 -29 0 -25
36 -63 45 -49 3 6 2 11 -2 11 -5 0 -17 26 -27 58 -9 31 -20 64 -23 72 -5 13
-4 13 10 1 10 -7 17 -27 17 -44 0 -17 3 -27 7 -23 4 4 13 -8 19 -26 l12 -33 1
28 c1 27 2 28 19 11 16 -17 17 -17 20 2 7 43 16 49 22 14 6 -30 8 -27 9 25 2
74 15 103 25 52 3 -19 4 -42 0 -51 -3 -9 -1 -16 5 -16 6 0 12 15 12 33 l2 32
4 -30 c5 -34 23 -59 23 -32 0 10 5 26 12 36 6 11 8 26 3 37 -4 11 -7 33 -5 49
1 17 3 42 4 58 0 15 6 27 11 27 6 0 10 -28 10 -65 -1 -36 3 -65 7 -65 4 0 9
10 10 23 0 12 2 27 3 32 2 6 4 21 5 35 1 22 2 23 9 6 6 -17 9 -15 21 14 7 18
13 38 13 46 0 7 4 11 8 9 3 -3 13 3 20 12 8 9 9 14 3 10 -8 -4 -13 5 -16 28
-3 26 0 35 11 35 8 0 12 3 8 6 -3 3 -2 11 4 18 5 6 18 22 29 36 15 19 22 22
28 12 7 -10 13 -7 25 12 9 13 27 28 39 32 l23 7 -23 8 c-18 7 -22 14 -17 31 9
29 47 61 56 46 4 -7 9 -7 13 1 4 6 17 10 29 10 12 -1 40 3 62 8 22 6 50 8 62
7 12 -2 25 1 28 6 3 6 13 10 21 10 11 0 13 -6 9 -20 -8 -24 3 -25 33 -4 12 8
26 13 31 10 14 -9 42 5 38 18 -2 6 -10 11 -18 11 -8 1 -32 6 -54 12 -88 26
-132 33 -180 31 -27 -1 -59 0 -70 4 -11 3 -42 1 -70 -6z"/>
<path d="M1971 2197 c-36 -10 -81 -21 -100 -24 -22 -4 -49 -21 -78 -49 -24
-24 -47 -44 -51 -44 -4 0 -16 -13 -25 -30 -10 -16 -26 -34 -35 -39 -23 -12
-92 -75 -92 -84 0 -4 -7 -15 -16 -24 -8 -10 -37 -47 -64 -83 -26 -36 -68 -87
-92 -114 -38 -43 -49 -49 -88 -51 -88 -5 -223 -26 -258 -40 -19 -8 -43 -15
-53 -15 -11 0 -99 -27 -197 -59 -97 -32 -196 -64 -219 -70 -23 -6 -55 -23 -72
-37 -16 -13 -54 -33 -83 -43 -106 -37 -177 -80 -197 -119 -10 -20 -16 -43 -14
-50 3 -7 0 -50 -7 -95 -42 -284 16 -485 241 -847 42 -69 95 -159 117 -200 l40
-75 203 -3 204 -2 41 72 c23 40 51 94 62 121 12 26 25 47 31 47 19 0 52 43 41
54 -5 5 -10 23 -10 38 0 21 6 29 24 34 30 7 40 28 20 44 -18 16 -18 34 1 69 8
16 19 60 24 97 14 100 23 148 27 153 8 8 13 -5 17 -44 5 -47 24 -58 32 -18 4
15 11 39 16 52 9 22 8 23 -18 16 l-28 -7 24 26 c20 21 21 26 8 26 -9 0 -20 -8
-26 -17 -12 -21 -24 -13 -15 11 3 9 14 16 24 16 20 0 43 23 33 33 -3 4 1 7 10
7 16 0 23 33 19 95 0 11 6 39 14 62 10 29 12 48 6 60 -7 13 -3 32 14 70 13 28
29 55 35 59 14 8 60 -16 53 -28 -3 -4 2 -11 10 -14 9 -3 16 -16 16 -28 0 -15
10 -27 33 -38 l32 -16 -35 -16 -35 -16 43 6 c27 4 42 2 42 -5 0 -6 6 -11 14
-11 21 0 67 -26 59 -33 -3 -4 1 -7 10 -7 9 0 17 -4 17 -10 0 -5 5 -10 11 -10
5 0 7 5 4 10 -3 6 1 10 9 10 9 0 16 5 16 10 0 6 7 10 16 10 14 0 15 -2 3 -17
-13 -15 -12 -15 8 -5 30 17 38 15 22 -5 -12 -15 -12 -16 4 -10 21 8 22 3 1
-17 -8 -9 -11 -16 -5 -16 5 0 13 5 16 10 10 17 28 11 21 -7 -6 -15 -4 -15 14
2 30 27 24 6 -7 -29 -26 -29 -26 -29 -2 -8 14 12 33 22 42 22 22 0 22 19 0 36
-10 7 -13 14 -6 14 6 0 15 -5 18 -11 5 -7 14 -4 27 8 21 18 21 18 8 -7 -13
-24 -12 -24 5 -10 17 14 18 14 6 -7 -9 -19 -9 -22 3 -17 8 3 16 14 19 24 3 13
12 18 26 15 12 -2 21 1 21 6 0 6 5 7 12 3 6 -4 9 -3 5 2 -3 5 1 18 9 29 8 10
14 13 14 7 0 -10 5 -10 20 -2 26 14 25 2 -2 -29 -18 -19 -18 -22 -4 -11 18 14
19 13 13 -3 -4 -11 -3 -16 4 -12 6 4 8 13 5 20 -2 7 14 30 36 51 23 22 38 34
35 28 -7 -12 37 -37 47 -27 11 12 6 22 -8 17 -8 -3 -17 -1 -20 4 -3 5 6 9 19
10 14 0 27 -4 30 -7 6 -10 -10 -32 -26 -35 -8 -1 -24 -7 -36 -14 -14 -8 -24
-9 -28 -2 -4 6 -11 7 -17 4 -7 -5 -3 -11 11 -16 12 -4 19 -12 16 -18 -4 -6 7
-10 25 -10 20 0 29 4 25 11 -4 6 -13 8 -21 5 -7 -3 -16 -1 -19 5 -4 5 8 12 25
15 17 4 33 11 36 15 3 5 17 9 31 9 23 0 24 -2 12 -17 -12 -14 -12 -16 1 -8 19
11 150 15 150 4 0 -14 33 3 65 33 17 15 38 28 48 28 22 0 22 9 0 25 -16 12
-14 12 10 8 15 -3 33 0 41 6 7 6 20 9 28 6 8 -3 24 6 36 20 12 14 30 25 39 26
14 0 12 4 -7 12 -27 13 -37 47 -14 47 8 0 13 -6 11 -13 -1 -7 8 -12 21 -11 12
0 22 -5 22 -13 0 -7 7 -13 17 -13 15 0 15 1 -1 19 -9 10 -15 24 -13 32 2 8 2
11 0 7 -11 -19 -23 -5 -23 27 0 19 -5 35 -11 35 -5 0 -8 -4 -4 -9 10 -17 -18
-24 -30 -8 -15 21 -26 22 -19 2 6 -14 -11 -20 -38 -16 -21 3 -4 -18 18 -23 15
-4 24 -9 21 -13 -3 -3 -21 3 -39 12 -18 9 -48 19 -66 20 -28 3 -31 1 -21 -11
14 -17 0 -18 -23 -1 -12 9 -15 23 -12 44 3 20 -1 36 -12 47 -15 16 -14 16 11
12 19 -4 25 -1 22 8 -3 6 1 23 9 37 7 13 13 29 13 34 0 6 -9 -7 -20 -27 -11
-21 -22 -38 -25 -38 -3 0 -2 6 2 13 5 8 2 8 -9 -2 -15 -12 -17 -11 -17 3 0 9
4 16 8 16 4 0 8 10 9 23 2 19 0 18 -15 -8 -13 -24 -17 -26 -20 -12 -2 9 -8 15
-13 12 -5 -4 -9 -1 -9 5 0 6 -4 8 -10 5 -6 -3 -7 1 -4 9 3 9 10 16 14 16 4 0
15 11 23 24 15 23 15 24 -3 19 -11 -3 -20 -9 -20 -14 0 -5 -5 -9 -10 -9 -7 0
-6 8 1 23 11 20 11 21 -4 9 -9 -8 -28 -15 -42 -16 -19 -3 -25 1 -25 17 0 20 0
20 -22 1 -20 -18 -20 -17 2 14 25 34 36 41 26 17 -3 -8 0 -15 7 -15 7 0 13 9
14 20 1 11 -2 18 -8 15 -5 -4 -9 -1 -9 5 0 7 -14 4 -35 -9 l-35 -20 0 27 c1
15 7 38 15 52 8 14 14 36 14 50 -1 21 -3 19 -11 -10 -12 -43 -12 -43 -37 -35
-26 8 -27 23 -3 42 9 8 11 12 5 8 -9 -4 -13 1 -13 14 0 12 7 21 15 21 8 0 15
7 15 16 0 8 4 13 9 9 5 -3 13 0 17 6 5 8 3 9 -5 4 -9 -5 -12 0 -11 16 4 45 0
70 -10 64 -5 -3 -7 0 -4 9 3 8 1 23 -5 33 -10 17 -10 16 -11 -4 0 -17 -4 -21
-17 -16 -16 6 -16 5 -5 -10 8 -9 12 -22 9 -29 -2 -7 -18 16 -36 52 -17 36 -28
54 -25 40 3 -14 8 -36 11 -48 5 -20 2 -23 -13 -20 -11 2 -18 11 -18 21 1 9
-11 26 -27 38 -16 11 -29 17 -29 12 0 -4 9 -14 21 -21 12 -7 18 -16 15 -19 -3
-3 -12 -1 -20 6 -11 9 -15 7 -19 -9 -3 -11 -1 -20 4 -20 5 0 9 -5 9 -10 0 -7
-6 -8 -16 -2 -12 7 -24 2 -45 -20 -15 -17 -33 -27 -38 -23 -6 3 -11 -1 -11 -9
0 -9 5 -16 12 -16 22 0 78 -45 78 -62 0 -10 7 -18 15 -18 12 0 12 -3 -2 -18
-17 -18 -19 -18 -38 -2 -11 9 -35 24 -53 33 -29 14 -34 14 -48 0 -13 -14 -16
-14 -27 0 -7 8 -23 18 -37 21 -14 3 -19 3 -12 0 22 -10 1 -24 -37 -24 -22 0
-44 -6 -51 -15 -7 -8 -21 -15 -31 -15 -10 0 -21 -4 -24 -10 -3 -5 -14 -10 -25
-10 -10 0 -20 -7 -24 -15 -3 -8 -12 -15 -20 -15 -8 0 -18 -9 -21 -20 -3 -11
-13 -20 -21 -20 -8 0 -14 -9 -14 -20 0 -11 -4 -20 -10 -20 -5 0 -10 -7 -10
-15 0 -8 -4 -23 -9 -33 -4 -9 -15 -30 -23 -47 -9 -16 -19 -43 -22 -60 -8 -33
-61 -84 -88 -85 -10 0 -18 -4 -18 -8 0 -10 -45 -32 -65 -32 -23 0 20 76 77
137 26 28 48 59 48 67 0 8 6 19 14 23 7 4 20 22 29 39 9 17 23 36 32 44 11 9
12 15 5 20 -7 4 3 16 23 30 19 13 34 31 32 39 -1 9 2 22 8 29 8 10 7 16 -3 22
-9 6 -1 12 28 19 26 8 49 22 63 42 12 17 32 34 45 39 13 5 24 16 24 24 0 16
43 30 68 22 21 -7 104 34 110 53 3 10 -3 13 -26 9 -17 -2 -29 -1 -26 3 2 4 -2
10 -8 12 -9 4 -10 8 -2 14 6 4 13 16 17 25 6 17 9 17 57 -2 45 -18 55 -16 48
7 -2 4 -11 6 -20 5 -10 -2 -18 1 -18 6 0 11 48 22 96 22 34 0 40 6 26 26 -8
12 -52 14 -52 2 0 -4 -18 -8 -40 -8 -49 0 -53 17 -5 26 40 7 45 19 14 27 -21
6 -20 7 12 34 18 15 38 26 44 24 5 -2 22 -3 38 -3 20 1 31 -7 42 -28 17 -33
38 -50 28 -23 -3 10 -10 24 -16 31 -6 8 -6 17 1 25 9 10 3 17 -24 32 -31 16
-34 22 -32 54 l3 36 -49 0 c-26 1 -78 -8 -115 -18z"/>
<path d="M4320 1626 c-5 -13 -14 -27 -21 -32 -9 -5 -10 -2 -6 9 3 9 2 19 -2
22 -5 2 -11 -4 -14 -15 -3 -13 -12 -18 -31 -16 -14 1 -29 6 -33 9 -3 4 -12 -1
-19 -11 -11 -14 -14 -14 -14 -2 -1 9 -5 5 -10 -8 -9 -22 -11 -22 -41 -6 -17 8
-34 24 -36 35 -3 10 -9 16 -14 14 -4 -3 -6 -13 -3 -23 5 -14 4 -14 -4 -3 -6 8
-8 20 -5 28 3 7 0 13 -6 13 -8 0 -10 -11 -5 -35 4 -24 3 -35 -6 -35 -7 0 -10
7 -6 15 3 8 1 15 -4 15 -6 0 -10 -7 -10 -16 0 -8 -4 -12 -10 -9 -14 9 -13 -8
2 -23 9 -9 9 -12 -1 -12 -8 0 -11 -6 -7 -17 6 -15 4 -15 -13 1 -20 18 -21 18
-30 -5 -5 -16 -5 -26 2 -31 6 -4 8 -11 3 -15 -4 -4 -14 0 -21 10 -7 10 -16 14
-19 8 -4 -5 -2 -12 3 -16 9 -5 12 -45 3 -45 -1 0 -16 7 -32 15 -33 17 -40 10
-12 -11 11 -9 13 -16 6 -21 -18 -13 -24 -44 -13 -65 6 -11 9 -21 7 -23 -2 -2
-16 20 -31 48 -20 38 -22 46 -7 28 19 -22 20 -23 20 -2 0 11 -9 25 -19 31 -16
8 -21 6 -26 -10 -3 -11 -4 -23 -2 -28 3 -4 -1 -16 -9 -27 -8 -10 -14 -13 -14
-6 0 7 -5 9 -11 5 -8 -4 -3 -12 13 -20 34 -18 43 -50 14 -49 -12 0 -27 4 -33
8 -7 4 -20 4 -29 -1 -11 -6 -13 -11 -5 -16 8 -5 8 -13 1 -26 -8 -14 -6 -18 7
-16 20 3 28 22 14 31 -14 8 -14 25 -1 25 6 0 14 -10 19 -22 9 -24 -7 -48 -32
-48 -7 0 -14 -6 -14 -13 0 -9 9 -12 23 -9 18 3 26 -2 34 -23 15 -39 13 -43
-22 -55 l-33 -10 31 5 c26 3 33 0 37 -16 3 -12 10 -19 15 -15 5 3 9 -2 9 -10
0 -11 -7 -14 -22 -10 -14 4 -22 1 -22 -7 0 -8 15 -12 46 -11 41 2 43 1 19 -8
-16 -5 -28 -16 -28 -23 0 -7 -6 -16 -12 -18 -10 -4 -9 -6 1 -6 8 -1 19 6 25
14 9 13 17 14 43 5 17 -6 34 -18 37 -26 3 -8 11 -14 17 -14 8 0 7 5 -2 17 -13
15 -12 15 8 5 27 -15 42 2 16 17 -10 6 -13 10 -8 10 6 0 19 -6 29 -14 11 -8
16 -15 11 -15 -5 0 1 -9 13 -21 12 -11 20 -24 17 -30 -9 -14 11 -11 24 4 6 8
7 18 3 22 -4 5 -1 5 6 1 10 -6 10 -11 1 -22 -6 -8 -7 -14 -3 -14 5 0 14 8 21
18 9 15 7 21 -8 30 -23 14 -25 32 -4 32 8 0 15 -4 15 -9 0 -5 7 -12 16 -15 8
-3 12 -2 9 3 -3 5 -1 13 5 16 8 5 7 12 -2 23 -11 13 -10 14 9 4 16 -9 23 -9
26 1 3 6 4 -2 3 -20 -3 -26 1 -33 19 -37 13 -3 37 -19 55 -36 20 -19 30 -24
25 -13 -5 15 -4 16 7 5 7 -7 13 -18 13 -24 0 -6 6 -13 14 -16 8 -3 11 0 7 6
-3 6 0 12 6 15 10 3 9 8 -2 22 -15 18 -14 18 13 0 21 -13 25 -20 15 -26 -9 -6
-9 -9 -1 -9 6 0 18 -3 27 -6 12 -5 16 0 16 20 0 20 -5 26 -22 26 -15 0 -19 3
-11 11 7 7 27 4 67 -10 31 -11 56 -16 56 -12 0 4 13 8 28 9 15 0 32 1 37 2 22
5 36 -1 29 -12 -4 -7 -3 -8 5 -4 6 4 9 12 6 17 -4 5 8 7 27 4 l33 -5 -32 10
c-56 18 -52 28 17 45 3 1 14 6 24 10 19 8 19 9 0 17 -16 7 -15 8 6 4 14 -2 34
-7 45 -11 20 -8 20 -8 1 14 -20 22 -20 22 2 28 12 3 19 9 16 14 -3 5 2 9 12 9
13 0 14 3 4 15 -10 12 -9 16 5 21 10 4 26 2 35 -4 14 -9 19 -8 24 3 3 9 -1 15
-9 15 -27 0 -16 16 20 29 l35 12 -25 27 c-14 15 -25 32 -25 38 0 6 -11 20 -25
32 -14 13 -23 27 -20 32 3 5 -3 15 -15 22 -11 7 -20 22 -20 33 0 12 -13 42
-30 68 -16 26 -30 52 -30 57 0 6 -5 10 -11 10 -5 0 -8 4 -5 9 4 5 -11 20 -31
32 -21 13 -40 27 -41 31 -8 20 -101 52 -157 54 -35 2 -59 8 -57 14 4 20 -9 10
-18 -14z"/>
<path d="M2895 821 c-44 -10 -105 -23 -135 -28 -85 -17 -211 -69 -271 -113
-30 -21 -72 -52 -94 -67 -86 -61 -144 -124 -178 -197 -71 -149 -78 -165 -80
-198 -3 -45 -15 -62 -32 -48 -10 8 -11 18 -5 35 5 13 7 25 5 27 -2 2 -6 21 -8
42 -3 26 3 53 19 87 29 59 30 79 6 79 -63 0 -82 -86 -68 -305 2 -38 5 -85 5
-103 l1 -32 957 2 957 3 7 30 c22 93 25 162 12 240 -17 94 -30 126 -61 141
-32 16 -63 46 -73 71 -5 15 -20 24 -44 29 -33 6 -115 58 -156 98 -9 9 -20 16
-26 16 -5 0 -22 11 -37 24 -25 21 -134 67 -226 95 -19 6 -71 22 -115 36 -193
63 -223 66 -360 36z m25 -222 c25 -6 53 -10 63 -10 9 0 24 -11 33 -23 14 -22
13 -28 -11 -82 -15 -33 -31 -67 -36 -77 -5 -10 -7 -33 -4 -51 7 -37 -13 -66
-46 -66 -16 0 -19 5 -14 19 4 13 -4 30 -24 54 -17 19 -28 37 -24 41 3 3 1 6
-6 6 -12 0 -44 63 -44 88 0 6 -4 12 -9 12 -4 0 -8 13 -8 29 0 20 8 36 28 50
31 23 40 24 102 10z m464 -24 c38 -25 34 -59 -11 -90 -21 -14 -45 -25 -53 -25
-9 0 -21 -5 -28 -12 -20 -20 -66 7 -59 34 4 12 1 28 -4 35 -8 9 -3 21 22 47
28 30 38 34 70 31 21 -2 49 -11 63 -20z"/>
<path d="M1815 715 c2 -11 0 -27 -5 -35 -8 -12 -10 -12 -10 5 0 19 -1 19 -15
-2 -8 -12 -12 -28 -9 -36 3 -8 -2 -17 -11 -21 -9 -3 -13 -11 -9 -17 4 -7 -4
-20 -17 -31 -20 -15 -21 -17 -4 -11 11 4 25 14 32 22 9 13 10 9 4 -20 -12 -54
-73 -129 -70 -86 1 20 14 49 22 48 20 -2 27 0 27 8 0 5 -13 7 -28 5 -26 -4
-29 -2 -27 23 2 15 6 37 10 48 5 14 0 11 -20 -10 l-27 -30 4 25 c3 22 0 25
-27 22 -16 -2 -31 -8 -33 -13 -2 -5 -9 -9 -16 -9 -6 0 -19 -8 -27 -19 -15 -17
-14 -19 15 -37 l31 -19 -32 -3 c-18 -2 -33 -8 -33 -13 0 -6 9 -7 20 -4 14 5
20 2 20 -9 0 -9 -4 -16 -10 -16 -5 0 -10 -7 -10 -15 0 -19 43 -37 67 -28 11 5
14 3 8 -6 -5 -10 -2 -11 14 -6 28 9 27 -9 -1 -23 -18 -8 -19 -11 -5 -11 9 -1
17 -5 17 -11 0 -15 -33 -12 -57 5 -19 13 -22 13 -27 0 -9 -24 3 -43 32 -50 18
-4 22 -9 13 -14 -9 -6 -5 -12 13 -24 14 -10 31 -17 37 -17 8 0 8 -4 -1 -15
-10 -12 -10 -15 1 -15 14 0 -20 -29 -35 -30 -6 0 -1 7 10 15 15 11 16 14 3 15
-8 0 -24 -6 -34 -14 -18 -13 -17 -14 13 -21 17 -3 36 -4 41 -1 5 4 12 0 14 -6
5 -12 8 -2 11 39 1 7 5 13 9 13 14 -1 38 30 32 40 -3 5 -1 10 6 10 8 0 8 4 -1
15 -11 13 -9 20 9 38 23 26 27 53 9 60 -10 4 -10 6 0 6 15 1 16 28 1 33 -9 3
-8 11 1 28 8 14 14 34 15 44 1 11 7 22 13 24 6 2 8 10 5 19 -4 9 -2 14 3 11 5
-4 9 4 9 17 0 18 -3 21 -12 13 -19 -16 -16 5 5 33 36 48 57 85 40 71 -13 -10
-17 -10 -22 0 -3 7 -4 4 -1 -7z"/>
</g>
</svg>
